<svg id="Capa_1" enable-background="new 0 0 512 512" height="512" viewBox="0 0 512 512" width="512" xmlns="http://www.w3.org/2000/svg"><path d="m256.002 512c-3.925 0-7.756-1.542-10.607-4.394l-241-241c-3.821-3.821-5.292-9.402-3.85-14.61s5.575-9.237 10.818-10.548l257.066-64.267c5.111-1.277 10.519.221 14.244 3.946l48.2 48.2c3.726 3.726 5.224 9.133 3.945 14.245l-64.267 257.067c-1.311 5.243-5.34 9.375-10.548 10.817-1.32.365-2.667.544-4.001.544z" fill="#ffc000"/><path d="m256.002 512c1.335 0 2.682-.179 4.003-.545 5.208-1.442 9.237-5.575 10.548-10.817l64.267-257.067c1.278-5.112-.22-10.519-3.945-14.245l-24.1-24.1-181.88 181.88 120.5 120.5c2.851 2.851 6.682 4.394 10.607 4.394z" fill="#ff6f00"/><path d="m207.8 351.333c-25.989 0-47.133-21.144-47.133-47.133s21.144-47.133 47.133-47.133 47.134 21.144 47.134 47.133-21.144 47.133-47.134 47.133z" fill="#5f0000"/><path d="m207.8 351.333c25.989 0 47.134-21.144 47.134-47.133 0-12.995-5.286-24.778-13.821-33.313l-66.625 66.625c8.534 8.535 20.318 13.821 33.312 13.821z" fill="#280000"/><path d="m264.399 178.188 92.226-92.355c5.857-5.858 15.355-5.858 21.213 0l48.2 48.2c5.858 5.857 5.853 15.361 0 21.213l-92.226 92.356z" fill="#912200"/><path d="m426.038 155.245c5.853-5.852 5.858-15.355 0-21.213l-24.035-24.035-102.898 102.898 34.706 34.706z" fill="#5f0000"/><path d="m356.754 85.962 64.267-80.333c2.665-3.332 6.623-5.371 10.884-5.606 4.243-.23 8.418 1.353 11.436 4.371l64.267 64.267c3.018 3.017 4.606 7.176 4.37 11.436-.235 4.26-2.274 8.218-5.606 10.883l-80.333 64.267z" fill="#c24400"/><path d="m506.371 90.979c3.332-2.665 5.371-6.623 5.606-10.883.236-4.26-1.353-8.419-4.37-11.436l-32.133-32.133-84.078 84.078 34.642 34.642z" fill="#912200"/></svg>