<svg id="Capa_1" enable-background="new 0 0 512 512" height="512" viewBox="0 0 512 512" width="512" xmlns="http://www.w3.org/2000/svg"><g><g><g><g fill="#7ba0b0"><path d="m68.31 418.429-11.601 67.872c-1.086 6.352 3.807 12.152 10.251 12.152h21.655c4.04 0 7.715-2.34 9.424-6.001l34.546-74.022h-64.275z"/><path d="m443.69 418.429h-64.274l34.546 74.022c1.709 3.661 5.383 6.001 9.424 6.001h21.655c6.444 0 11.336-5.8 10.251-12.152z"/></g><g><g><g><path d="m424.588 54.876c-7.05 0-13.337-4.99-14.723-12.17-1.571-8.14 3.755-16.013 11.896-17.584l58.567-11.301c8.137-1.57 16.013 3.755 17.584 11.896 1.571 8.14-3.755 16.013-11.896 17.584l-58.567 11.301c-.96.184-1.918.274-2.861.274z" fill="#fc8086"/></g></g><path d="m138.912 125.634h-95.072v-37.006c0-5.14 4.167-9.307 9.307-9.307h76.457c5.14 0 9.307 4.167 9.307 9.307v37.006z" fill="#fba615"/><path d="m129.604 79.32h-40.67c5.14 0 9.307 4.167 9.307 9.307v37.006h40.67v-37.005c.001-5.141-4.166-9.308-9.307-9.308z" fill="#fa9801"/><g><g><g><g><g><path d="m473.087 450.453h-434.174c-17.346 0-31.407-14.061-31.407-31.407v-275.63c0-17.346 14.061-31.407 31.407-31.407h434.174c17.346 0 31.407 14.061 31.407 31.407v275.63c0 17.346-14.061 31.407-31.407 31.407z" fill="#fdcb82"/><path d="m43.84 405.097v-247.732c0-5.805 4.706-10.511 10.511-10.511h403.298c5.805 0 10.511 4.706 10.511 10.511v247.731c0 5.805-4.706 10.511-10.511 10.511h-403.298c-5.805.001-10.511-4.705-10.511-10.51z" fill="#fcb143"/><path d="m457.649 146.854h-40.678c5.805 0 10.511 4.706 10.511 10.511v247.731c0 5.805-4.706 10.511-10.511 10.511h40.678c5.805 0 10.511-4.706 10.511-10.511v-247.731c0-5.805-4.706-10.511-10.511-10.511z" fill="#fba615"/><path d="m468.16 193.352v-35.986c0-5.805-4.706-10.511-10.511-10.511h-403.298c-5.805 0-10.511 4.706-10.511 10.511v35.986z" fill="#f9f6f6"/><path d="m468.16 193.352v-35.986c0-5.805-4.706-10.511-10.511-10.511h-40.677c5.804 0 10.51 4.706 10.51 10.511v35.986z" fill="#e7ecf1"/></g></g></g></g><g><path d="m372.181 200.857c-4.145 0-7.506-3.36-7.506-7.506v-23.249c0-4.145 3.36-7.506 7.506-7.506 4.145 0 7.506 3.36 7.506 7.506v23.249c-.001 4.146-3.361 7.506-7.506 7.506z" fill="#fc8086"/></g></g></g><g><circle cx="168.934" cy="306.02" fill="#c9e2e7" r="82.062"/><path d="m168.934 223.958c-7.021 0-13.834.886-20.339 2.544 35.483 9.049 61.723 41.217 61.723 79.518s-26.24 70.469-61.723 79.518c6.504 1.659 13.318 2.544 20.339 2.544 45.322 0 82.062-36.74 82.062-82.062s-36.74-82.062-82.062-82.062z" fill="#a8d0d5"/></g><g><g fill="#968bc8"><circle cx="333.694" cy="351.6" r="22.32"/><circle cx="410.666" cy="351.6" r="22.32"/></g></g></g></g><g><g><path d="m432.987 290.859h-121.613c-4.145 0-7.506 3.36-7.506 7.506s3.36 7.506 7.506 7.506h121.613c4.145 0 7.506-3.36 7.506-7.506s-3.361-7.506-7.506-7.506z"/><path d="m432.987 260.737h-121.613c-4.145 0-7.506 3.36-7.506 7.506 0 4.145 3.36 7.506 7.506 7.506h121.613c4.145 0 7.506-3.36 7.506-7.506-.001-4.146-3.361-7.506-7.506-7.506z"/><path d="m432.987 230.614h-121.613c-4.145 0-7.506 3.36-7.506 7.506s3.36 7.506 7.506 7.506h121.613c4.145 0 7.506-3.36 7.506-7.506s-3.361-7.506-7.506-7.506z"/><path d="m473.087 104.503h-326.67v-3.319l258.775-49.933c3.954 6.726 11.251 11.13 19.396 11.13 1.429 0 2.87-.138 4.283-.41l58.567-11.301c12.19-2.353 20.195-14.185 17.843-26.375-2.352-12.191-14.186-20.192-26.375-17.844l-58.567 11.301c-9.607 1.854-16.61 9.597-17.997 18.761l-256.16 49.429c-1.292-7.995-8.223-14.127-16.578-14.127h-76.456c-9.271 0-16.813 7.542-16.813 16.813v15.971c-20.259 1.332-36.335 18.227-36.335 38.817v275.63c0 21.457 17.456 38.913 38.913 38.913h15.027l-4.628 27.078c-.891 5.212.553 10.52 3.963 14.562s8.398 6.36 13.686 6.36h21.655c6.927 0 13.296-4.056 16.226-10.333l17.578-37.667h267.162l17.578 37.667c2.929 6.277 9.299 10.333 16.226 10.333h21.655c5.288 0 10.276-2.318 13.686-6.36s4.854-9.349 3.963-14.562l-4.628-27.078h15.027c21.457 0 38.913-17.456 38.913-38.913v-275.63c-.002-21.457-17.458-38.913-38.915-38.913zm-49.904-72.012 58.566-11.301c.478-.092.955-.137 1.425-.137 3.524 0 6.675 2.499 7.367 6.085.784 4.064-1.884 8.008-5.948 8.792l-58.566 11.301c-.477.092-.962.139-1.439.139-3.58 0-6.673-2.56-7.353-6.087-.784-4.063 1.884-8.007 5.948-8.792zm-371.837 56.137c0-.993.808-1.802 1.802-1.802h76.457c.993 0 1.802.808 1.802 1.802v15.876h-80.06v-15.876zm39.891 400.649c-.473 1.014-1.503 1.67-2.623 1.67h-21.654c-1.17 0-1.888-.644-2.212-1.028s-.838-1.2-.641-2.353l5.06-29.607h36.685zm356.015.642c-.324.384-1.042 1.028-2.212 1.028h-21.655c-1.12 0-2.149-.656-2.623-1.67l-14.616-31.318h36.685l5.06 29.607c.198 1.153-.315 1.969-.639 2.353zm49.737-70.873c0 13.179-10.722 23.901-23.901 23.901h-434.175c-13.179 0-23.901-10.722-23.901-23.901v-275.63c0-13.179 10.722-23.901 23.901-23.901h434.175c13.179 0 23.901 10.722 23.901 23.901z"/><path d="m457.649 139.348h-337.705c-4.145 0-7.506 3.36-7.506 7.506 0 4.145 3.36 7.506 7.506 7.506h337.705c1.657 0 3.005 1.348 3.005 3.006v28.48h-80.968-15.011-313.329v-28.48c0-1.658 1.348-3.006 3.005-3.006h30.52c4.145 0 7.506-3.36 7.506-7.506 0-4.145-3.36-7.506-7.506-7.506h-30.52c-9.934 0-18.017 8.082-18.017 18.017v247.731c0 9.935 8.082 18.017 18.017 18.017h403.298c9.934 0 18.017-8.082 18.017-18.017v-35.952c0-4.145-3.36-7.506-7.506-7.506s-7.506 3.36-7.506 7.506v35.952c0 1.658-1.348 3.006-3.005 3.006h-403.298c-1.657 0-3.005-1.348-3.005-3.006v-204.239h409.309v133.198c0 4.145 3.36 7.506 7.506 7.506s7.506-3.36 7.506-7.506v-176.69c-.001-9.934-8.083-18.017-18.018-18.017z"/><path d="m79.367 306.02c0 49.388 40.18 89.568 89.568 89.568s89.568-40.18 89.568-89.568-40.18-89.568-89.568-89.568-89.568 40.18-89.568 89.568zm89.567 74.556c-19.064 0-36.472-7.201-49.669-19.014h99.338c-13.197 11.813-30.605 19.014-49.669 19.014zm62.529-34.026h-125.057c-3.417-5.254-6.188-10.961-8.205-17.013h141.468c-2.018 6.052-4.789 11.759-8.206 17.013zm12.028-40.53c0 2.878-.181 5.713-.5 8.506h-148.113c-.319-2.794-.5-5.629-.5-8.506 0-2.878.181-5.713.5-8.506h148.113c.319 2.793.5 5.628.5 8.506zm-3.823-23.518h-141.468c2.018-6.052 4.788-11.759 8.205-17.013h125.057c3.418 5.254 6.189 10.961 8.206 17.013zm-120.403-32.024c13.197-11.814 30.605-19.014 49.669-19.014s36.472 7.201 49.669 19.014z"/><path d="m303.868 351.6c0 16.446 13.38 29.826 29.826 29.826s29.826-13.38 29.826-29.826-13.38-29.826-29.826-29.826-29.826 13.38-29.826 29.826zm44.641 0c0 8.169-6.646 14.814-14.814 14.814s-14.815-6.646-14.815-14.814c0-8.169 6.646-14.814 14.815-14.814s14.814 6.645 14.814 14.814z"/><path d="m410.667 321.774c-16.446 0-29.826 13.38-29.826 29.826s13.38 29.826 29.826 29.826 29.826-13.38 29.826-29.826-13.38-29.826-29.826-29.826zm0 44.641c-8.169 0-14.815-6.646-14.815-14.814 0-8.169 6.646-14.814 14.815-14.814s14.814 6.646 14.814 14.814-6.646 14.814-14.814 14.814z"/></g></g></g></svg>