<svg height="512pt" viewBox="-75 0 512 512.001" width="512pt" xmlns="http://www.w3.org/2000/svg"><path d="m341.332031 224.941406c16.101563 34.699219 28.523438 70.308594-34.796875 250.070313-6.21875 17.660156-22.902344 29.488281-41.632812 29.488281h-168.125c-18.730469 0-35.414063-11.828125-41.632813-29.488281-63.320312-179.761719-50.894531-215.371094-34.796875-250.070313zm0 0" fill="#485b73"/><path d="m341.332031 224.941406c-41.648437 48.207032-98.195312 77.835938-160.492187 77.835938-62.292969 0-118.839844-29.628906-160.492188-77.835938 8.472656-18.257812 17.964844-36.273437 17.964844-74.914062 0-78.71875 63.8125-142.527344 142.527344-142.527344 78.71875 0 142.527344 63.808594 142.527344 142.527344 0 38.636718 9.492187 56.652344 17.964843 74.914062zm0 0" fill="#ff6881"/><path d="m122.777344 504.5c-18.726563 0-35.414063-11.828125-41.632813-29.488281-63.320312-179.761719-50.894531-215.371094-34.796875-250.070313h-26c-.753906 1.625-1.5 3.253906-2.230468 4.898438-11.964844 26.933594-12.285157 55.140625-8.082032 83.875 1.269532 8.664062 2.878906 17.277344 4.699219 25.84375 7.011719 33.003906 19.632813 76.46875 40.410156 135.453125 6.128907 17.414062 23.152344 29.488281 41.632813 29.488281zm0 0" fill="#324761"/><path d="m38.628906 243.984375c2.207032-6.886719 4.90625-12.980469 7.71875-19.042969 8.472656-18.261718 17.964844-36.277344 17.964844-74.914062 0-74.335938 56.90625-135.363282 129.515625-141.933594-1.050781-.09375-3.285156-.257812-3.34375-.261719-3.210937-.21875-6.425781-.332031-9.644531-.332031-41.816406 0-79.429688 18.007812-105.5 46.695312-23.519532 25.875-37.027344 60.597657-37.027344 95.832032 0 35.015625-7.792969 53.09375-15.5625 69.765625-.804688 1.726562-1.605469 3.4375-2.402344 5.148437 5.808594 6.722656 11.917969 13.070313 18.28125 19.042969zm0 0" fill="#de4b64"/><path d="m73.863281 137.300781c8.074219-51.816406 52.894531-91.464843 106.976563-91.464843 54.085937 0 98.902344 39.648437 106.976562 91.464843zm0 0" fill="#f9da60"/><path d="m103.863281 137.300781c7.316407-46.941406 44.785157-83.894531 91.976563-90.433593-1.101563-.152344-2.210938-.28125-3.324219-.402344-3.875-.414063-7.777344-.628906-11.675781-.628906-25.824219 0-51.191406 9.414062-70.742188 26.300781-19.257812 16.636719-32.3125 40.007812-36.234375 65.164062zm0 0" fill="#ffb258"/><path d="m289.125 154.121094c0 59.804687-48.484375 108.285156-108.285156 108.285156-59.800782 0-108.285156-48.480469-108.285156-108.285156 0-5.71875.441406-11.339844 1.308593-16.820313 1 .007813 73.96875.859375 106.976563-38.945312 33.011718 39.804687 105.976562 38.953125 106.976562 38.945312.867188 5.480469 1.308594 11.101563 1.308594 16.820313zm0 0" fill="#ffddcb"/><path d="m244.371094 194.488281h-14.859375c-4.140625 0-7.5-3.355469-7.5-7.5 0-4.140625 3.359375-7.5 7.5-7.5h14.859375c4.140625 0 7.5 3.359375 7.5 7.5 0 4.144531-3.359375 7.5-7.5 7.5zm0 0" fill="#ff9ec0"/><path d="m132.167969 194.488281h-14.859375c-4.140625 0-7.5-3.355469-7.5-7.5 0-4.140625 3.359375-7.5 7.5-7.5h14.859375c4.140625 0 7.5 3.359375 7.5 7.5 0 4.144531-3.359375 7.5-7.5 7.5zm0 0" fill="#ff9ec0"/><path d="m242.269531 382.757812c-4.40625-13.519531-18.957031-21.601562-32.402343-17.265624-1.765626.585937-3.601563 1.394531-5.363282 2.351562.363282-1.984375.585938-3.96875.585938-5.808594 0-14.179687-10.066406-25.714844-24.246094-25.714844-14.183594 0-24.253906 11.535157-24.253906 25.714844 0 1.839844.222656 3.824219.589844 5.808594-1.761719-.957031-3.601563-1.765625-5.363282-2.351562-13.449218-4.335938-27.996094 3.746093-32.40625 17.265624-4.40625 13.519532 3.011719 27.996094 16.535156 32.40625 1.761719.585938 3.671876.953126 5.730469 1.246094-1.46875 1.398438-2.792969 2.867188-3.894531 4.335938-8.378906 11.535156-5.804688 27.554687 5.65625 35.933594 11.539062 8.449218 26.164062 5.730468 34.464844-5.660157 1.101562-1.542969 2.058594-3.234375 2.941406-5.070312.878906 1.835937 1.835938 3.527343 2.9375 5.070312 8.375 11.464844 23 14.035157 34.460938 5.660157 11.535156-8.378907 14.035156-24.398438 5.65625-35.933594-1.101563-1.46875-2.421876-2.9375-3.890626-4.335938 2.054688-.292968 3.964844-.660156 5.730469-1.246094 13.519531-4.410156 20.941407-18.882812 16.53125-32.40625zm0 0" fill="#ff6881"/><path d="m197.058594 402.382812c0 8.957032-7.261719 16.21875-16.21875 16.21875-8.957032 0-16.21875-7.261718-16.21875-16.21875 0-8.957031 7.261718-16.21875 16.21875-16.21875 8.957031 0 16.21875 7.261719 16.21875 16.21875zm0 0" fill="#ececee"/><path d="m185.109375 262.304688c1.015625-.035157 2.03125-.085938 3.046875-.148438.125-.007812.246094-.015625.371094-.023438 2.460937-.175781 4.898437-.429687 7.3125-.765624-52.699219-7.304688-93.285156-52.53125-93.285156-107.246094 0-6.496094.605468-12.957032 1.757812-19.347656-14.355469 2.234374-25.648438 2.5-29.253906 2.527343-.636719.003907-1.03125 0-1.148438 0-.011718 0-.035156 0-.042968 0-1.089844.046875-1.308594 15.929688-1.308594 16.820313 0 38.3125 19.894531 71.976562 49.921875 91.226562 5.886719 3.773438 12.148437 6.980469 18.65625 9.546875 13.960937 5.507813 28.996093 7.9375 43.972656 7.410157zm0 0" fill="#ffc6b3"/><path d="m236.960938 176.585938c4.140624 0 7.5-3.355469 7.5-7.5v-9.972657c0-4.140625-3.359376-7.5-7.5-7.5-4.144532 0-7.5 3.359375-7.5 7.5v9.972657c0 4.144531 3.355468 7.5 7.5 7.5zm0 0"/><path d="m124.757812 176.585938c4.140626 0 7.5-3.355469 7.5-7.5v-9.972657c0-4.140625-3.359374-7.5-7.5-7.5-4.144531 0-7.5 3.359375-7.5 7.5v9.972657c0 4.144531 3.355469 7.5 7.5 7.5zm0 0"/><path d="m195.828125 176.285156c-3.117187-2.726562-7.855469-2.40625-10.582031.710938-1.042969 1.191406-2.640625 1.875-4.386719 1.875-1.75 0-3.347656-.683594-4.390625-1.875-2.726562-3.117188-7.460938-3.4375-10.582031-.710938-3.117188 2.726563-3.4375 7.464844-.710938 10.585938 3.890625 4.449218 9.605469 7 15.683594 7 6.074219 0 11.789063-2.550782 15.679687-7 2.726563-3.121094 2.40625-7.859375-.710937-10.585938zm0 0"/><path d="m180.859375 378.664062c-13.078125 0-23.71875 10.640626-23.71875 23.722657 0 13.078125 10.640625 23.71875 23.71875 23.71875s23.71875-10.640625 23.71875-23.71875c0-13.082031-10.640625-23.722657-23.71875-23.722657zm0 32.4375c-4.808594 0-8.71875-3.910156-8.71875-8.71875 0-4.808593 3.910156-8.71875 8.71875-8.71875s8.71875 3.910157 8.71875 8.71875c0 4.808594-3.910156 8.71875-8.71875 8.71875zm0 0"/><path d="m249.417969 380.433594c-4.535157-13.90625-17.71875-23.617188-32.066407-23.617188-1.695312 0-3.382812.136719-5.058593.40625-2.167969-16.265625-15.195313-28.402344-31.433594-28.402344-16.234375 0-29.265625 12.136719-31.433594 28.402344-1.667969-.269531-3.359375-.40625-5.0625-.40625-14.34375 0-27.53125 9.710938-32.066406 23.617188-2.753906 8.445312-2.042969 17.449218 1.996094 25.355468 3.296875 6.453126 8.492187 11.550782 14.871093 14.691407-7.488281 14.324219-3.566406 32.4375 9.859376 42.25 5.707031 4.179687 12.277343 6.386719 19 6.386719 8.589843 0 16.683593-3.5625 22.835937-9.957032 6.132813 6.375 14.234375 9.949219 22.828125 9.949219 6.722656 0 13.292969-2.207031 18.980469-6.359375 7.199219-5.230469 11.925781-12.929688 13.300781-21.6875 1.117188-7.132812-.089844-14.289062-3.410156-20.59375 14.546875-7.203125 22.027344-24.191406 16.859375-40.035156zm-26.097657 27.445312c-1.386718.519532-2.847656.894532-4.355468 1.109375-6.085938.871094-8.566406 8.625-4.105469 12.863281 1.164063 1.105469 2.179687 2.230469 3.023437 3.351563 5.996094 7.953125 3.894532 19.65625-4.046874 25.417969-9.59375 6.96875-21.296876 2.324218-26.214844-7.914063-2.675782-5.570312-10.855469-5.558593-13.523438 0-3.035156 6.316407-8.742187 11.410157-16.078125 11.410157-3.511719 0-7.015625-1.207032-10.140625-3.496094-8.09375-5.910156-9.902344-17.304688-4.046875-25.421875.84375-1.117188 1.859375-2.246094 3.023438-3.347657 4.460937-4.242187 1.976562-11.996093-4.105469-12.863281-6.417969-.917969-12.070312-4.085937-15.101562-10.023437-6.152344-12.039063 3.246093-27.148438 16.714843-27.148438 3.308594 0 6.378907 1.058594 9.257813 2.621094 5.429687 2.941406 12.070312-1.902344 10.949218-7.960938-1.996093-10.78125 4.277344-22.65625 16.289063-22.65625 11.886719 0 18.253906 12.011719 16.285156 22.65625-1.128906 6.085938 5.5 10.914063 10.949219 7.960938 10.460938-5.675781 23.316406-.835938 27.0625 10.648438 3.28125 10.050781-2.773438 19.421874-11.835938 22.792968zm0 0"/><path d="m76.507812 52.671875c-3.171874-2.664063-7.902343-2.253906-10.566406.917969-22.640625 26.949218-35.109375 61.199218-35.109375 96.4375 0 34.820312-8.050781 52.035156-15.835937 68.683594-11.742188 25.171874-16.675782 49.539062-14.492188 77.453124 3.179688 40.578126 18.300782 98.199219 47.585938 181.335938 7.261718 20.636719 26.835937 34.5 48.707031 34.5h168.125c21.871094 0 41.441406-13.863281 48.707031-34.496094 29.285156-83.140625 44.40625-140.761718 47.582032-181.339844 2.125-27.117187-3.03125-52.882812-14.492188-77.457031-7.785156-16.648437-15.832031-33.863281-15.832031-68.679687 0-82.726563-67.304688-150.027344-150.027344-150.027344-33.863281 0-65.824219 11.011719-92.429687 31.847656-3.261719 2.554688-3.835938 7.269532-1.28125 10.53125 2.554687 3.257813 7.269531 3.832032 10.53125 1.277344 23.9375-18.746094 52.703124-28.65625 83.179687-28.65625 74.453125 0 135.027344 60.574219 135.027344 135.027344 0 37.125 8.675781 56.675781 16.589843 73.632812-.113281.125-.226562.25-.339843.375-13.164063 14.59375-28.074219 27.636719-44.496094 38.449219-3.460937 2.277344-4.417969 6.925781-2.140625 10.386719 2.210938 3.355468 7.039062 4.347656 10.390625 2.140625 11.773437-7.746094 22.808594-16.59375 33.066406-26.253907.023438-.023437 6.925781-6.734374 10.226563-10.234374 11.921875 29.167968 17.292968 72.191406-39.707032 233.996093-5.152343 14.644531-19.039062 24.480469-34.554687 24.480469h-168.125c-15.519531 0-29.40625-9.835938-34.558594-24.480469-56.992187-161.792969-51.625-204.824219-39.707031-233.992187.125.136718.253906.261718.378906.398437 12.976563 13.6875 27.449219 26.039063 43.25 36.359375 34.03125 22.234375 73.949219 34.992188 114.699219 34.992188 30.535156 0 60.300781-6.816406 88.476563-20.257813 3.734374-1.785156 5.320312-6.261719 3.539062-10-1.734375-3.628906-6.367188-5.269531-10-3.539062-25.566406 12.191406-53.675781 18.796875-82.015625 18.796875-38.550781 0-76.324219-12.332032-108.257813-33.738282-.027343-.019531-.054687-.035156-.082031-.054687-15.765625-10.582031-30.199219-23.257813-42.882812-37.382813-.132813-.148437-.261719-.296874-.394531-.445312 7.914062-16.953125 16.589843-36.507812 16.589843-73.628906 0-31.714844 11.21875-62.539063 31.59375-86.792969 2.664063-3.167969 2.253907-7.898437-.917969-10.5625zm0 0"/><path d="m66.523438 136.167969c-.957032 5.925781-1.449219 11.933593-1.449219 17.953125 0 63.847656 51.941406 115.785156 115.785156 115.785156s115.785156-51.9375 115.785156-115.785156c0-63.011719-52.816406-115.785156-115.785156-115.785156-56.417969 0-105.375 42.304687-114.335937 97.832031zm114.335937 118.738281c-55.574219 0-100.785156-45.210938-100.785156-100.785156 0-3.171875.144531-6.335938.4375-9.460938 8.535156-.351562 24.097656-1.566406 41.316406-5.667968 25.28125-6.023438 45.09375-15.960938 59.03125-29.589844 13.9375 13.628906 33.75 23.566406 59.03125 29.589844 17.199219 4.097656 32.75 5.316406 41.3125 5.667968.292969 3.125.441406 6.289063.441406 9.460938 0 55.574218-45.210937 100.785156-100.785156 100.785156zm-65.839844-177.09375c18.273438-15.785156 41.65625-24.476562 65.839844-24.476562s47.566406 8.691406 65.839844 24.476562c15.761719 13.617188 26.886719 31.722656 31.90625 51.691406-11.730469-.707031-33.503907-3.0625-54.277344-10.902344-.011719-.003906-.023437-.007812-.035156-.011718-14.144531-5.375-27.890625-13.238282-37.660157-25.019532-2.945312-3.554687-8.605468-3.546874-11.546874 0-9.671876 11.664063-23.5 19.644532-37.644532 25.011719-.03125.011719-.066406.027344-.097656.039063-20.773438 7.828125-42.535156 10.179687-54.230469 10.882812 5.019531-19.96875 16.140625-38.074218 31.90625-51.691406zm0 0"/></svg>